<mxfile host="65bd71144e">
    <diagram name="Page-1" id="4T1kXUS9-b-aL4tz5m4I">
        <mxGraphModel dx="1380" dy="-543" grid="1" gridSize="10" guides="1" tooltips="1" connect="1" arrows="1" fold="1" page="1" pageScale="1" pageWidth="827" pageHeight="1169" math="0" shadow="0">
            <root>
                <mxCell id="0"/>
                <mxCell id="1" parent="0"/>
                <mxCell id="1sqvrXjf4_GnCzgxel8a-67" value="User" style="swimlane;fontStyle=0;align=center;verticalAlign=top;childLayout=stackLayout;horizontal=1;startSize=26;horizontalStack=0;resizeParent=1;resizeLast=0;collapsible=1;marginBottom=0;rounded=0;shadow=0;strokeWidth=1;" parent="1" vertex="1">
                    <mxGeometry x="40" y="1270" width="170" height="164" as="geometry">
                        <mxRectangle x="40" y="80" width="160" height="26" as="alternateBounds"/>
                    </mxGeometry>
                </mxCell>
                <mxCell id="1sqvrXjf4_GnCzgxel8a-68" value="- Username : string" style="text;align=left;verticalAlign=top;spacingLeft=4;spacingRight=4;overflow=hidden;rotatable=0;points=[[0,0.5],[1,0.5]];portConstraint=eastwest;rounded=0;" parent="1sqvrXjf4_GnCzgxel8a-67" vertex="1">
                    <mxGeometry y="26" width="170" height="26" as="geometry"/>
                </mxCell>
                <mxCell id="1sqvrXjf4_GnCzgxel8a-69" value="- PasswordÂ : string" style="text;align=left;verticalAlign=top;spacingLeft=4;spacingRight=4;overflow=hidden;rotatable=0;points=[[0,0.5],[1,0.5]];portConstraint=eastwest;rounded=0;shadow=0;html=0;" parent="1sqvrXjf4_GnCzgxel8a-67" vertex="1">
                    <mxGeometry y="52" width="170" height="26" as="geometry"/>
                </mxCell>
                <mxCell id="1sqvrXjf4_GnCzgxel8a-70" value="- Coins: int" style="text;align=left;verticalAlign=top;spacingLeft=4;spacingRight=4;overflow=hidden;rotatable=0;points=[[0,0.5],[1,0.5]];portConstraint=eastwest;rounded=0;shadow=0;html=0;" parent="1sqvrXjf4_GnCzgxel8a-67" vertex="1">
                    <mxGeometry y="78" width="170" height="26" as="geometry"/>
                </mxCell>
                <mxCell id="1sqvrXjf4_GnCzgxel8a-71" value="- GamesPlayed: int" style="text;align=left;verticalAlign=top;spacingLeft=4;spacingRight=4;overflow=hidden;rotatable=0;points=[[0,0.5],[1,0.5]];portConstraint=eastwest;rounded=0;shadow=0;html=0;" parent="1sqvrXjf4_GnCzgxel8a-67" vertex="1">
                    <mxGeometry y="104" width="170" height="26" as="geometry"/>
                </mxCell>
                <mxCell id="1sqvrXjf4_GnCzgxel8a-72" value="- Elo: int" style="text;align=left;verticalAlign=top;spacingLeft=4;spacingRight=4;overflow=hidden;rotatable=0;points=[[0,0.5],[1,0.5]];portConstraint=eastwest;rounded=0;shadow=0;html=0;" parent="1sqvrXjf4_GnCzgxel8a-67" vertex="1">
                    <mxGeometry y="130" width="170" height="26" as="geometry"/>
                </mxCell>
                <mxCell id="1sqvrXjf4_GnCzgxel8a-73" value="" style="line;html=1;strokeWidth=1;align=left;verticalAlign=middle;spacingTop=-1;spacingLeft=3;spacingRight=3;rotatable=0;labelPosition=right;points=[];portConstraint=eastwest;" parent="1sqvrXjf4_GnCzgxel8a-67" vertex="1">
                    <mxGeometry y="156" width="170" height="8" as="geometry"/>
                </mxCell>
                <mxCell id="1sqvrXjf4_GnCzgxel8a-82" value="Monster" style="swimlane;fontStyle=0;align=center;verticalAlign=top;childLayout=stackLayout;horizontal=1;startSize=26;horizontalStack=0;resizeParent=1;resizeLast=0;collapsible=1;marginBottom=0;rounded=0;shadow=0;strokeWidth=1;" parent="1" vertex="1">
                    <mxGeometry x="310" y="1600" width="210" height="90" as="geometry">
                        <mxRectangle x="360" y="320" width="160" height="26" as="alternateBounds"/>
                    </mxGeometry>
                </mxCell>
                <mxCell id="1sqvrXjf4_GnCzgxel8a-84" value="- MonsterType: MonsterType" style="text;align=left;verticalAlign=top;spacingLeft=4;spacingRight=4;overflow=hidden;rotatable=0;points=[[0,0.5],[1,0.5]];portConstraint=eastwest;rounded=0;shadow=0;html=0;" parent="1sqvrXjf4_GnCzgxel8a-82" vertex="1">
                    <mxGeometry y="26" width="210" height="26" as="geometry"/>
                </mxCell>
                <mxCell id="1sqvrXjf4_GnCzgxel8a-85" value="" style="line;html=1;strokeWidth=1;align=left;verticalAlign=middle;spacingTop=-1;spacingLeft=3;spacingRight=3;rotatable=0;labelPosition=right;points=[];portConstraint=eastwest;" parent="1sqvrXjf4_GnCzgxel8a-82" vertex="1">
                    <mxGeometry y="52" width="210" height="8" as="geometry"/>
                </mxCell>
                <mxCell id="1sqvrXjf4_GnCzgxel8a-86" value="+ Battle(oppCard: Card): BattleEnd" style="text;align=left;verticalAlign=top;spacingLeft=4;spacingRight=4;overflow=hidden;rotatable=0;points=[[0,0.5],[1,0.5]];portConstraint=eastwest;rounded=0;shadow=0;html=0;" parent="1sqvrXjf4_GnCzgxel8a-82" vertex="1">
                    <mxGeometry y="60" width="210" height="30" as="geometry"/>
                </mxCell>
                <mxCell id="1sqvrXjf4_GnCzgxel8a-87" value="Spell" style="swimlane;fontStyle=0;align=center;verticalAlign=top;childLayout=stackLayout;horizontal=1;startSize=26;horizontalStack=0;resizeParent=1;resizeLast=0;collapsible=1;marginBottom=0;rounded=0;shadow=0;strokeWidth=1;" parent="1" vertex="1">
                    <mxGeometry x="530" y="1600" width="230" height="150" as="geometry">
                        <mxRectangle x="230" y="140" width="160" height="26" as="alternateBounds"/>
                    </mxGeometry>
                </mxCell>
                <mxCell id="1sqvrXjf4_GnCzgxel8a-89" value="" style="line;html=1;strokeWidth=1;align=left;verticalAlign=middle;spacingTop=-1;spacingLeft=3;spacingRight=3;rotatable=0;labelPosition=right;points=[];portConstraint=eastwest;" parent="1sqvrXjf4_GnCzgxel8a-87" vertex="1">
                    <mxGeometry y="26" width="230" height="8" as="geometry"/>
                </mxCell>
                <mxCell id="1sqvrXjf4_GnCzgxel8a-90" value="+ Battle(oppCard: Card): BattleEnd" style="text;align=left;verticalAlign=top;spacingLeft=4;spacingRight=4;overflow=hidden;rotatable=0;points=[[0,0.5],[1,0.5]];portConstraint=eastwest;rounded=0;shadow=0;html=0;" parent="1sqvrXjf4_GnCzgxel8a-87" vertex="1">
                    <mxGeometry y="34" width="230" height="26" as="geometry"/>
                </mxCell>
                <mxCell id="cipwJM4poq1GliXSku6--9" value="- MixedFight(oppCard: Card): BattleEnd" style="text;align=left;verticalAlign=top;spacingLeft=4;spacingRight=4;overflow=hidden;rotatable=0;points=[[0,0.5],[1,0.5]];portConstraint=eastwest;rounded=0;shadow=0;html=0;" parent="1sqvrXjf4_GnCzgxel8a-87" vertex="1">
                    <mxGeometry y="60" width="230" height="26" as="geometry"/>
                </mxCell>
                <mxCell id="cipwJM4poq1GliXSku6--8" value="- SpellFight(oppCard: Card): BattleEnd" style="text;align=left;verticalAlign=top;spacingLeft=4;spacingRight=4;overflow=hidden;rotatable=0;points=[[0,0.5],[1,0.5]];portConstraint=eastwest;rounded=0;shadow=0;html=0;" parent="1sqvrXjf4_GnCzgxel8a-87" vertex="1">
                    <mxGeometry y="86" width="230" height="26" as="geometry"/>
                </mxCell>
                <mxCell id="cipwJM4poq1GliXSku6--10" value="- CheckElementEffectiveness&#10;(oppElementType: ElementType): int" style="text;align=left;verticalAlign=top;spacingLeft=4;spacingRight=4;overflow=hidden;rotatable=0;points=[[0,0.5],[1,0.5]];portConstraint=eastwest;rounded=0;shadow=0;html=0;" parent="1sqvrXjf4_GnCzgxel8a-87" vertex="1">
                    <mxGeometry y="112" width="230" height="38" as="geometry"/>
                </mxCell>
                <mxCell id="1sqvrXjf4_GnCzgxel8a-91" value="Extends" style="endArrow=block;endSize=16;endFill=0;html=1;rounded=0;exitX=0.5;exitY=0;exitDx=0;exitDy=0;edgeStyle=orthogonalEdgeStyle;entryX=0.5;entryY=1;entryDx=0;entryDy=0;" parent="1" source="1sqvrXjf4_GnCzgxel8a-82" target="1sqvrXjf4_GnCzgxel8a-121" edge="1">
                    <mxGeometry x="0.6569" width="160" relative="1" as="geometry">
                        <mxPoint x="420" y="1610" as="sourcePoint"/>
                        <mxPoint x="520" y="1430" as="targetPoint"/>
                        <Array as="points">
                            <mxPoint x="415" y="1580"/>
                            <mxPoint x="530" y="1580"/>
                        </Array>
                        <mxPoint as="offset"/>
                    </mxGeometry>
                </mxCell>
                <mxCell id="1sqvrXjf4_GnCzgxel8a-97" value="Trading" style="swimlane;fontStyle=0;align=center;verticalAlign=top;childLayout=stackLayout;horizontal=1;startSize=26;horizontalStack=0;resizeParent=1;resizeLast=0;collapsible=1;marginBottom=0;rounded=0;shadow=0;strokeWidth=1;" parent="1" vertex="1">
                    <mxGeometry x="40" y="1470" width="160" height="60" as="geometry">
                        <mxRectangle x="40" y="380" width="160" height="26" as="alternateBounds"/>
                    </mxGeometry>
                </mxCell>
                <mxCell id="1sqvrXjf4_GnCzgxel8a-98" value="" style="line;html=1;strokeWidth=1;align=left;verticalAlign=middle;spacingTop=-1;spacingLeft=3;spacingRight=3;rotatable=0;labelPosition=right;points=[];portConstraint=eastwest;" parent="1sqvrXjf4_GnCzgxel8a-97" vertex="1">
                    <mxGeometry y="26" width="160" height="8" as="geometry"/>
                </mxCell>
                <mxCell id="1sqvrXjf4_GnCzgxel8a-99" value="Package" style="swimlane;fontStyle=0;align=center;verticalAlign=top;childLayout=stackLayout;horizontal=1;startSize=26;horizontalStack=0;resizeParent=1;resizeLast=0;collapsible=1;marginBottom=0;rounded=0;shadow=0;strokeWidth=1;" parent="1" vertex="1">
                    <mxGeometry x="250" y="1350" width="160" height="90" as="geometry">
                        <mxRectangle x="230" y="140" width="160" height="26" as="alternateBounds"/>
                    </mxGeometry>
                </mxCell>
                <mxCell id="1sqvrXjf4_GnCzgxel8a-100" value="- PRICE: int" style="text;align=left;verticalAlign=top;spacingLeft=4;spacingRight=4;overflow=hidden;rotatable=0;points=[[0,0.5],[1,0.5]];portConstraint=eastwest;rounded=0;shadow=0;html=0;" parent="1sqvrXjf4_GnCzgxel8a-99" vertex="1">
                    <mxGeometry y="26" width="160" height="26" as="geometry"/>
                </mxCell>
                <mxCell id="1sqvrXjf4_GnCzgxel8a-101" value="" style="line;html=1;strokeWidth=1;align=left;verticalAlign=middle;spacingTop=-1;spacingLeft=3;spacingRight=3;rotatable=0;labelPosition=right;points=[];portConstraint=eastwest;" parent="1sqvrXjf4_GnCzgxel8a-99" vertex="1">
                    <mxGeometry y="52" width="160" height="8" as="geometry"/>
                </mxCell>
                <mxCell id="1sqvrXjf4_GnCzgxel8a-102" value="+ Package()" style="text;align=left;verticalAlign=top;spacingLeft=4;spacingRight=4;overflow=hidden;rotatable=0;points=[[0,0.5],[1,0.5]];portConstraint=eastwest;rounded=0;shadow=0;html=0;" parent="1sqvrXjf4_GnCzgxel8a-99" vertex="1">
                    <mxGeometry y="60" width="160" height="26" as="geometry"/>
                </mxCell>
                <mxCell id="1sqvrXjf4_GnCzgxel8a-103" value="1" style="endArrow=open;html=1;endSize=12;startArrow=diamondThin;startSize=14;startFill=0;edgeStyle=orthogonalEdgeStyle;align=left;verticalAlign=bottom;rounded=0;exitX=0.5;exitY=0;exitDx=0;exitDy=0;entryX=0.25;entryY=0;entryDx=0;entryDy=0;" parent="1" source="1sqvrXjf4_GnCzgxel8a-99" target="1sqvrXjf4_GnCzgxel8a-121" edge="1">
                    <mxGeometry x="-0.9798" y="-6" relative="1" as="geometry">
                        <mxPoint x="550" y="1310" as="sourcePoint"/>
                        <mxPoint x="487.5" y="1342" as="targetPoint"/>
                        <mxPoint as="offset"/>
                        <Array as="points">
                            <mxPoint x="330" y="1320"/>
                            <mxPoint x="480" y="1320"/>
                        </Array>
                    </mxGeometry>
                </mxCell>
                <mxCell id="1sqvrXjf4_GnCzgxel8a-104" value="5" style="edgeLabel;html=1;align=center;verticalAlign=middle;resizable=0;points=[];" parent="1sqvrXjf4_GnCzgxel8a-103" vertex="1" connectable="0">
                    <mxGeometry x="1" y="11" relative="1" as="geometry">
                        <mxPoint x="3" y="-15" as="offset"/>
                    </mxGeometry>
                </mxCell>
                <mxCell id="1sqvrXjf4_GnCzgxel8a-105" value="Battle" style="swimlane;fontStyle=0;align=center;verticalAlign=top;childLayout=stackLayout;horizontal=1;startSize=26;horizontalStack=0;resizeParent=1;resizeLast=0;collapsible=1;marginBottom=0;rounded=0;shadow=0;strokeWidth=1;" parent="1" vertex="1">
                    <mxGeometry x="20" y="1570" width="230" height="60" as="geometry">
                        <mxRectangle x="230" y="140" width="160" height="26" as="alternateBounds"/>
                    </mxGeometry>
                </mxCell>
                <mxCell id="1sqvrXjf4_GnCzgxel8a-106" value="" style="line;html=1;strokeWidth=1;align=left;verticalAlign=middle;spacingTop=-1;spacingLeft=3;spacingRight=3;rotatable=0;labelPosition=right;points=[];portConstraint=eastwest;" parent="1sqvrXjf4_GnCzgxel8a-105" vertex="1">
                    <mxGeometry y="26" width="230" height="8" as="geometry"/>
                </mxCell>
                <mxCell id="cipwJM4poq1GliXSku6--11" value="+ Fight(card: Card, oppCard: Card): void" style="text;align=left;verticalAlign=top;spacingLeft=4;spacingRight=4;overflow=hidden;rotatable=0;points=[[0,0.5],[1,0.5]];portConstraint=eastwest;rounded=0;shadow=0;html=0;" parent="1sqvrXjf4_GnCzgxel8a-105" vertex="1">
                    <mxGeometry y="34" width="230" height="26" as="geometry"/>
                </mxCell>
                <mxCell id="1sqvrXjf4_GnCzgxel8a-114" value="&lt;font style=&quot;font-size: 8px;&quot;&gt;BuyPackage()&amp;nbsp;&lt;/font&gt;&lt;span style=&quot;font-size: 8px; background-color: initial;&quot;&gt;{&lt;/span&gt;&lt;div&gt;&lt;font style=&quot;font-size: 8px;&quot;&gt;&lt;span style=&quot;white-space: pre;&quot;&gt;&#9;&lt;/span&gt;new Package(); // generates 4 cards in attribute&lt;br&gt;&lt;/font&gt;&lt;/div&gt;&lt;div&gt;&lt;font style=&quot;font-size: 8px;&quot;&gt;&lt;span style=&quot;white-space: pre;&quot;&gt;&#9;&lt;/span&gt;GetCards() // return the generated Cards&lt;br&gt;&lt;/font&gt;&lt;/div&gt;&lt;div&gt;&lt;font style=&quot;font-size: 8px;&quot;&gt;&lt;span style=&quot;white-space: pre;&quot;&gt;&#9;&lt;/span&gt;// evaluate if copies, else add to stack&lt;br&gt;&lt;/font&gt;&lt;/div&gt;&lt;div&gt;&lt;font style=&quot;font-size: 8px;&quot;&gt;}&lt;/font&gt;&lt;/div&gt;&lt;div&gt;&lt;font style=&quot;font-size: 8px;&quot;&gt;Battle() {&lt;/font&gt;&lt;/div&gt;&lt;div&gt;&lt;font style=&quot;font-size: 8px;&quot;&gt;&lt;span style=&quot;white-space: pre;&quot;&gt;&#9;&lt;/span&gt;new Battle()? // params: user (user.Stack)?&amp;nbsp; -&amp;gt; TBD&lt;/font&gt;&lt;/div&gt;&lt;div&gt;&lt;font style=&quot;font-size: 8px;&quot;&gt;&lt;span style=&quot;white-space: pre;&quot;&gt;&#9;&lt;/span&gt;// change Elo&lt;br&gt;&lt;/font&gt;&lt;/div&gt;&lt;div&gt;&lt;font style=&quot;font-size: 8px;&quot;&gt;}&amp;nbsp;&lt;/font&gt;&lt;/div&gt;&lt;div&gt;&lt;font style=&quot;font-size: 8px;&quot;&gt;Battle.Battle() // return W/D/L&lt;/font&gt;&lt;/div&gt;&lt;div&gt;&lt;font style=&quot;font-size: 8px;&quot;&gt;Trade(): TBD, // Ã¤hnlich wie Battle,&amp;nbsp;&lt;/font&gt;&lt;/div&gt;" style="shape=note;size=20;whiteSpace=wrap;html=1;align=left;" parent="1" vertex="1">
                    <mxGeometry x="30" y="1980" width="210" height="170" as="geometry"/>
                </mxCell>
                <mxCell id="1sqvrXjf4_GnCzgxel8a-118" value="&lt;font style=&quot;font-size: 8px;&quot;&gt;Features:&lt;/font&gt;&lt;div&gt;&lt;font style=&quot;font-size: 8px;&quot;&gt;&amp;nbsp;- display a &lt;b&gt;scoreboard &lt;/b&gt;(= sorted list of ELO values)&lt;/font&gt;&lt;/div&gt;&lt;div&gt;&lt;font style=&quot;font-size: 8px;&quot;&gt;&amp;nbsp;- editable &lt;b&gt;profile page&lt;/b&gt;&lt;/font&gt;&lt;/div&gt;&lt;div&gt;&lt;font style=&quot;font-size: 8px;&quot;&gt;&amp;nbsp;- user &lt;b&gt;stats &lt;/b&gt;â especially ELO calculation (+3 points for win, -5 for loss, starting value: 100;&lt;br&gt;higher sophisticated ELO system welcome)&lt;/font&gt;&lt;/div&gt;&lt;div&gt;&lt;font style=&quot;font-size: 8px;&quot;&gt;&amp;nbsp;- security check (using the &lt;b&gt;token &lt;/b&gt;that is retrieved at login on the server-side, so that user&lt;br&gt;actions can only be performed by the corresponding user itself)&lt;/font&gt;&lt;span style=&quot;font-size: 8px;&quot;&gt;&lt;br&gt;&lt;/span&gt;&lt;/div&gt;" style="shape=note;size=20;whiteSpace=wrap;html=1;align=left;" parent="1" vertex="1">
                    <mxGeometry x="270" y="1980" width="330" height="130" as="geometry"/>
                </mxCell>
                <mxCell id="1sqvrXjf4_GnCzgxel8a-121" value="&lt;&lt;abstract&gt;&gt;&#10;Card" style="swimlane;fontStyle=2;align=center;verticalAlign=top;childLayout=stackLayout;horizontal=1;startSize=40;horizontalStack=0;resizeParent=1;resizeLast=0;collapsible=1;marginBottom=0;rounded=0;shadow=0;strokeWidth=1;" parent="1" vertex="1">
                    <mxGeometry x="430" y="1350" width="200" height="190" as="geometry">
                        <mxRectangle x="360" y="320" width="160" height="26" as="alternateBounds"/>
                    </mxGeometry>
                </mxCell>
                <mxCell id="cipwJM4poq1GliXSku6--4" value="- NameÂ : string" style="text;align=left;verticalAlign=top;spacingLeft=4;spacingRight=4;overflow=hidden;rotatable=0;points=[[0,0.5],[1,0.5]];portConstraint=eastwest;rounded=0;" parent="1sqvrXjf4_GnCzgxel8a-121" vertex="1">
                    <mxGeometry y="40" width="200" height="26" as="geometry"/>
                </mxCell>
                <mxCell id="cipwJM4poq1GliXSku6--6" value="- ElementType: ElementType" style="text;align=left;verticalAlign=top;spacingLeft=4;spacingRight=4;overflow=hidden;rotatable=0;points=[[0,0.5],[1,0.5]];portConstraint=eastwest;rounded=0;shadow=0;html=0;" parent="1sqvrXjf4_GnCzgxel8a-121" vertex="1">
                    <mxGeometry y="66" width="200" height="26" as="geometry"/>
                </mxCell>
                <mxCell id="cipwJM4poq1GliXSku6--5" value="- Damage: int" style="text;align=left;verticalAlign=top;spacingLeft=4;spacingRight=4;overflow=hidden;rotatable=0;points=[[0,0.5],[1,0.5]];portConstraint=eastwest;rounded=0;shadow=0;html=0;" parent="1sqvrXjf4_GnCzgxel8a-121" vertex="1">
                    <mxGeometry y="92" width="200" height="26" as="geometry"/>
                </mxCell>
                <mxCell id="1sqvrXjf4_GnCzgxel8a-122" value="" style="line;html=1;strokeWidth=1;align=left;verticalAlign=middle;spacingTop=-1;spacingLeft=3;spacingRight=3;rotatable=0;labelPosition=right;points=[];portConstraint=eastwest;" parent="1sqvrXjf4_GnCzgxel8a-121" vertex="1">
                    <mxGeometry y="118" width="200" height="8" as="geometry"/>
                </mxCell>
                <mxCell id="1sqvrXjf4_GnCzgxel8a-123" value="+ Battle(oppCard: Card): BattleEnd" style="text;align=left;verticalAlign=top;spacingLeft=4;spacingRight=4;overflow=hidden;rotatable=0;points=[[0,0.5],[1,0.5]];portConstraint=eastwest;rounded=0;shadow=0;html=0;fontStyle=2" parent="1sqvrXjf4_GnCzgxel8a-121" vertex="1">
                    <mxGeometry y="126" width="200" height="26" as="geometry"/>
                </mxCell>
                <mxCell id="cipwJM4poq1GliXSku6--7" value="+ CompareDamage(damage: int, &#10;oppDamage: int): BattleEnd" style="text;align=left;verticalAlign=top;spacingLeft=4;spacingRight=4;overflow=hidden;rotatable=0;points=[[0,0.5],[1,0.5]];portConstraint=eastwest;rounded=0;shadow=0;html=0;fontStyle=4" parent="1sqvrXjf4_GnCzgxel8a-121" vertex="1">
                    <mxGeometry y="152" width="200" height="38" as="geometry"/>
                </mxCell>
                <mxCell id="1sqvrXjf4_GnCzgxel8a-124" value="Extends" style="endArrow=block;endSize=16;endFill=0;html=1;rounded=0;exitX=0.5;exitY=0;exitDx=0;exitDy=0;edgeStyle=orthogonalEdgeStyle;entryX=0.5;entryY=1;entryDx=0;entryDy=0;" parent="1" source="1sqvrXjf4_GnCzgxel8a-87" target="1sqvrXjf4_GnCzgxel8a-121" edge="1">
                    <mxGeometry x="0.6571" width="160" relative="1" as="geometry">
                        <mxPoint x="450" y="1500" as="sourcePoint"/>
                        <mxPoint x="530" y="1550" as="targetPoint"/>
                        <Array as="points">
                            <mxPoint x="645" y="1580"/>
                            <mxPoint x="530" y="1580"/>
                        </Array>
                        <mxPoint as="offset"/>
                    </mxGeometry>
                </mxCell>
                <mxCell id="1sqvrXjf4_GnCzgxel8a-126" value="&lt;&lt;enumeration&gt;&gt;&#10;BattleEnd" style="swimlane;fontStyle=0;align=center;verticalAlign=top;childLayout=stackLayout;horizontal=1;startSize=36;horizontalStack=0;resizeParent=1;resizeLast=0;collapsible=1;marginBottom=0;rounded=0;shadow=0;strokeWidth=1;" parent="1" vertex="1" collapsed="1">
                    <mxGeometry x="660" y="1474" width="100" height="36" as="geometry">
                        <mxRectangle x="280" y="1544" width="100" height="96" as="alternateBounds"/>
                    </mxGeometry>
                </mxCell>
                <mxCell id="1sqvrXjf4_GnCzgxel8a-127" value="&lt;div&gt;Win = 1,&lt;/div&gt;&lt;div&gt;Draw = 0,&lt;/div&gt;&lt;div&gt;Lose = -1&lt;/div&gt;" style="text;html=1;align=center;verticalAlign=middle;resizable=0;points=[];autosize=1;strokeColor=none;fillColor=none;" parent="1sqvrXjf4_GnCzgxel8a-126" vertex="1">
                    <mxGeometry y="36" width="100" height="60" as="geometry"/>
                </mxCell>
                <mxCell id="1sqvrXjf4_GnCzgxel8a-128" value="&lt;div&gt;&lt;span style=&quot;font-size: 8px;&quot;&gt;Feedback:&amp;nbsp;&lt;/span&gt;&lt;/div&gt;&lt;div&gt;&lt;span style=&quot;font-size: 8px;&quot;&gt;Packages werden eig vom Admin User erstellt statt generiert -&amp;gt; kann aber auch eigenes Feature sein&lt;/span&gt;&lt;/div&gt;&lt;div&gt;&lt;span style=&quot;font-size: 8px;&quot;&gt;Lieber abstrakte Klasse statt ICardType&lt;/span&gt;&lt;/div&gt;&lt;div&gt;&lt;span style=&quot;font-size: 8px;&quot;&gt;Monster Arten entweder so lassen oder groÃes switch case in monster&lt;/span&gt;&lt;/div&gt;&lt;div&gt;&lt;span style=&quot;font-size: 8px;&quot;&gt;Anderer hatte Klasse Server -&amp;gt; daraus dann Battle und Trading&lt;/span&gt;&lt;/div&gt;&lt;div&gt;&lt;span style=&quot;font-size: 8px;&quot;&gt;-&amp;gt; Package sollte checken ob genug coins&lt;/span&gt;&lt;/div&gt;" style="shape=note;size=20;whiteSpace=wrap;html=1;align=left;" parent="1" vertex="1">
                    <mxGeometry x="270" y="2120" width="330" height="130" as="geometry"/>
                </mxCell>
                <mxCell id="1sqvrXjf4_GnCzgxel8a-129" value="&lt;&lt;enumeration&gt;&gt;&#10;MonsterType" style="swimlane;fontStyle=0;align=center;verticalAlign=top;childLayout=stackLayout;horizontal=1;startSize=38;horizontalStack=0;resizeParent=1;resizeLast=0;collapsible=1;marginBottom=0;rounded=0;shadow=0;strokeWidth=1;" parent="1" vertex="1" collapsed="1">
                    <mxGeometry x="660" y="1430" width="100" height="38" as="geometry">
                        <mxRectangle x="280" y="1502" width="100" height="135" as="alternateBounds"/>
                    </mxGeometry>
                </mxCell>
                <mxCell id="1sqvrXjf4_GnCzgxel8a-130" value="&lt;div&gt;Goblin = 0,&lt;/div&gt;&lt;div&gt;Dragon = 1,&lt;/div&gt;&lt;div&gt;Wizzard = 2,&lt;/div&gt;&lt;div&gt;Ork = 3,&lt;/div&gt;&lt;div&gt;Knight = 4,&lt;/div&gt;&lt;div&gt;Kraken = 5,&lt;/div&gt;&lt;div&gt;FireElve = 6,&lt;/div&gt;" style="text;html=1;align=center;verticalAlign=middle;resizable=0;points=[];autosize=1;strokeColor=none;fillColor=none;" parent="1sqvrXjf4_GnCzgxel8a-129" vertex="1">
                    <mxGeometry y="25" width="100" height="110" as="geometry"/>
                </mxCell>
                <mxCell id="1sqvrXjf4_GnCzgxel8a-131" value="&lt;&lt;enumeration&gt;&gt;&#10;ElementType" style="swimlane;fontStyle=0;align=center;verticalAlign=top;childLayout=stackLayout;horizontal=1;startSize=40;horizontalStack=0;resizeParent=1;resizeLast=0;collapsible=1;marginBottom=0;rounded=0;shadow=0;strokeWidth=1;" parent="1" vertex="1" collapsed="1">
                    <mxGeometry x="660" y="1380" width="100" height="40" as="geometry">
                        <mxRectangle x="660" y="1380" width="100" height="100" as="alternateBounds"/>
                    </mxGeometry>
                </mxCell>
                <mxCell id="1sqvrXjf4_GnCzgxel8a-132" value="&lt;div&gt;Normal = 0,&lt;/div&gt;&lt;div&gt;Water = 1,&lt;/div&gt;&lt;div&gt;Fire = 2,&lt;/div&gt;" style="text;html=1;align=center;verticalAlign=middle;resizable=0;points=[];autosize=1;strokeColor=none;fillColor=none;" parent="1sqvrXjf4_GnCzgxel8a-131" vertex="1">
                    <mxGeometry y="40" width="100" height="60" as="geometry"/>
                </mxCell>
            </root>
        </mxGraphModel>
    </diagram>
</mxfile>